<?xml version="1.0" standalone="no"?>
<!DOCTYPE svg PUBLIC "-//W3C//DTD SVG 20010904//EN"
 "http://www.w3.org/TR/2001/REC-SVG-20010904/DTD/svg10.dtd">
<svg version="1.0" xmlns="http://www.w3.org/2000/svg"
 width="459.000000pt" height="459.000000pt" viewBox="0 0 459.000000 459.000000"
 preserveAspectRatio="xMidYMid meet">
<metadata>
Created by potrace 1.14, written by Peter Selinger 2001-2017
</metadata>
<g transform="translate(0.000000,459.000000) scale(0.100000,-0.100000)"
fill="#000000" stroke="none">
<path d="M713 4155 c0 -8 4 -12 9 -9 5 3 6 10 3 15 -9 13 -12 11 -12 -6z"/>
<path d="M1034 4156 c1 -8 5 -18 8 -22 4 -3 5 1 4 10 -1 8 -5 18 -8 22 -4 3
-5 -1 -4 -10z"/>
<path d="M2154 4147 c1 -21 -3 -22 -77 -25 -62 -2 -77 0 -71 10 5 10 4 11 -7
1 -7 -7 -38 -13 -69 -13 -31 0 -62 6 -69 13 -11 10 -13 10 -7 0 5 -10 -6 -13
-46 -13 -30 0 -60 6 -67 13 -11 10 -13 10 -7 0 5 -10 -6 -13 -46 -13 -30 0
-60 6 -67 13 -11 10 -13 10 -7 0 5 -9 -2 -13 -26 -13 -19 0 -40 6 -47 13 -11
10 -13 10 -7 0 6 -10 -18 -13 -106 -13 -77 0 -118 4 -127 13 -11 10 -13 10 -7
0 5 -10 -6 -13 -44 -13 -38 0 -49 3 -44 13 6 9 4 9 -8 -1 -11 -9 -67 -13 -209
-13 -200 0 -253 -2 -279 -12 -49 -18 -97 -31 -110 -28 -8 2 -12 -1 -7 -5 4 -4
-17 -21 -47 -38 -30 -17 -68 -43 -85 -59 -17 -15 -31 -24 -31 -20 -1 5 -8 -5
-16 -20 -8 -15 -19 -25 -25 -22 -5 4 -8 1 -7 -7 2 -7 -3 -12 -10 -10 -8 1 -11
-2 -7 -8 5 -9 -29 -67 -48 -81 -5 -3 -9 -10 -9 -15 -1 -20 -18 -52 -30 -57
-10 -4 -10 -6 1 -6 11 -1 11 -4 1 -16 -7 -8 -10 -15 -6 -15 3 0 1 -12 -6 -27
-6 -16 -13 -59 -15 -98 -3 -38 -10 -76 -16 -84 -9 -11 -9 -13 0 -8 10 6 12
-19 12 -107 -1 -84 -4 -114 -13 -109 -6 3 -6 0 2 -8 16 -17 16 -116 0 -122
-10 -4 -10 -6 0 -6 6 -1 12 -11 12 -24 0 -13 -6 -29 -12 -36 -10 -11 -10 -13
0 -7 8 5 12 0 12 -16 0 -13 -6 -30 -12 -37 -10 -11 -10 -13 -1 -7 10 5 13 -9
13 -59 0 -50 -3 -64 -12 -59 -10 6 -10 5 -1 -7 15 -19 16 -211 0 -221 -9 -6
-9 -8 1 -8 16 0 16 -42 0 -59 -10 -11 -10 -13 0 -7 8 5 12 0 12 -16 0 -13 -6
-30 -12 -37 -11 -11 -10 -13 0 -7 10 6 12 -18 11 -108 0 -85 -4 -114 -12 -110
-8 5 -7 2 1 -7 6 -7 12 -36 12 -65 0 -33 -5 -54 -12 -57 -10 -4 -10 -6 0 -6 6
-1 12 -11 12 -24 0 -13 -6 -29 -12 -36 -10 -11 -10 -13 -1 -7 17 10 17 -35 1
-53 -10 -10 -10 -12 -1 -7 17 9 16 -336 -1 -346 -8 -6 -8 -8 2 -8 6 0 12 -10
12 -23 0 -13 -6 -29 -12 -36 -10 -11 -10 -13 0 -7 8 5 12 0 12 -16 0 -13 -6
-30 -12 -37 -11 -11 -10 -13 0 -7 10 6 12 -18 11 -108 0 -85 -4 -114 -12 -109
-8 4 -7 1 1 -9 9 -11 12 -53 12 -144 -1 -71 -1 -132 1 -136 4 -16 5 -24 13
-73 4 -27 7 -52 6 -54 -1 -2 4 -8 12 -12 11 -7 10 -11 -2 -19 -13 -9 -13 -10
0 -10 9 0 23 -17 33 -37 13 -29 14 -40 4 -52 -11 -14 -10 -14 5 -2 15 11 19
11 24 -2 3 -9 2 -21 -2 -28 -4 -7 -3 -9 4 -5 6 3 17 -1 24 -10 13 -16 90 -93
119 -120 21 -19 129 -74 146 -74 7 0 13 -5 13 -12 0 -6 2 -9 5 -6 3 3 31 -1
63 -8 31 -8 103 -14 160 -14 80 0 102 -3 96 -12 -6 -10 -4 -10 7 0 17 16 116
16 122 0 4 -10 6 -10 6 0 1 6 8 12 17 12 9 0 12 -5 8 -12 -6 -10 -4 -10 7 0
17 16 116 16 122 0 4 -10 6 -10 6 0 1 6 8 12 17 12 9 0 12 -5 8 -12 -6 -10 -4
-10 7 0 7 6 36 12 65 12 33 0 54 -5 57 -12 4 -10 6 -10 6 0 1 6 8 12 17 12 9
0 12 -5 8 -12 -6 -10 -4 -10 7 -1 17 17 116 17 122 1 4 -9 6 -9 6 -1 1 17 258
18 279 1 10 -9 13 -9 9 -1 -5 9 34 12 157 12 124 1 165 -2 169 -11 4 -10 6
-10 6 0 1 6 13 12 27 12 17 0 23 -4 18 -12 -6 -10 -4 -10 7 -1 17 17 116 17
122 1 4 -10 6 -10 6 0 1 6 8 12 17 12 9 0 12 -5 8 -12 -6 -10 -4 -10 7 0 17
16 116 16 122 0 4 -10 6 -10 6 0 1 6 8 12 17 12 9 0 12 -5 8 -13 -6 -9 -4 -9
7 1 7 6 36 12 65 12 33 0 54 -5 57 -12 4 -10 6 -10 6 0 1 6 8 12 17 12 9 0 12
-5 8 -12 -6 -10 -4 -10 7 0 17 16 116 16 122 0 4 -9 6 -9 6 -1 1 17 258 18
279 1 10 -9 13 -9 9 -1 -5 8 15 12 75 12 100 1 129 5 192 25 27 8 54 12 59 9
6 -3 7 -1 3 5 -4 7 -2 12 3 12 18 0 26 3 39 17 16 16 36 17 26 1 -5 -7 -3 -8
5 -4 7 5 10 11 7 14 -10 9 33 34 46 26 6 -4 8 -3 5 3 -8 12 27 46 36 36 4 -3
7 1 7 10 0 9 7 17 15 17 8 0 14 4 12 9 -1 5 10 20 26 35 15 14 28 29 29 33 5
24 42 72 51 66 6 -3 7 -1 3 6 -4 7 0 28 9 47 9 19 18 44 21 54 2 11 7 30 10
42 12 50 13 128 14 1316 1 960 4 1231 13 1225 9 -5 9 -3 1 8 -7 8 -14 34 -17
59 -10 76 -32 154 -49 175 -12 14 -9 27 5 20 6 -3 2 2 -10 11 -13 9 -23 21
-23 26 0 13 -78 109 -111 137 -16 13 -26 29 -22 35 3 6 3 8 -2 4 -5 -5 -22 2
-39 15 -17 12 -43 29 -58 36 -15 8 -25 17 -23 21 2 4 -6 6 -18 5 -12 -1 -34 4
-49 11 -23 12 -54 21 -81 23 -5 1 -5 7 -1 14 5 8 4 9 -4 2 -16 -14 -124 -6
-116 8 5 8 2 7 -7 0 -9 -9 -54 -13 -147 -13 -104 0 -132 3 -126 13 6 10 4 10
-7 0 -9 -9 -48 -13 -119 -13 -71 0 -110 4 -119 13 -11 10 -13 10 -7 0 5 -9 0
-13 -16 -13 -13 0 -30 6 -37 13 -11 10 -13 10 -7 0 5 -10 -6 -13 -44 -13 -38
0 -49 3 -44 13 6 10 4 10 -7 0 -7 -7 -38 -13 -69 -13 -31 0 -62 6 -69 13 -11
10 -13 10 -7 0 6 -10 -22 -13 -123 -13 -124 0 -130 1 -126 20 2 11 0 22 -4 25
-5 2 -8 -5 -7 -18z"/>
<path d="M987 4149 c7 -7 15 -10 18 -7 3 3 -2 9 -12 12 -14 6 -15 5 -6 -5z"/>
<path d="M1146 4148 c3 -5 10 -6 15 -3 13 9 11 12 -6 12 -8 0 -12 -4 -9 -9z"/>
<path d="M1390 4151 c0 -6 4 -13 10 -16 6 -3 7 1 4 9 -7 18 -14 21 -14 7z"/>
<path d="M1476 4143 c-6 -14 -5 -15 5 -6 7 7 10 15 7 18 -3 3 -9 -2 -12 -12z"/>
<path d="M2106 4148 c3 -5 10 -6 15 -3 13 9 11 12 -6 12 -8 0 -12 -4 -9 -9z"/>
<path d="M2253 4145 c0 -8 4 -12 9 -9 5 3 6 10 3 15 -9 13 -12 11 -12 -6z"/>
<path d="M2333 4145 c0 -8 4 -12 9 -9 5 3 6 10 3 15 -9 13 -12 11 -12 -6z"/>
<path d="M2813 4145 c0 -8 4 -12 9 -9 5 3 6 10 3 15 -9 13 -12 11 -12 -6z"/>
<path d="M3070 4151 c0 -6 4 -13 10 -16 6 -3 7 1 4 9 -7 18 -14 21 -14 7z"/>
<path d="M3276 4152 c-3 -5 1 -9 9 -9 8 0 12 4 9 9 -3 4 -7 8 -9 8 -2 0 -6 -4
-9 -8z"/>
<path d="M3386 4128 c3 -5 10 -6 15 -3 13 9 11 12 -6 12 -8 0 -12 -4 -9 -9z"/>
<path d="M448 4022 c9 -10 19 -17 21 -16 6 5 -20 34 -30 34 -5 0 -1 -8 9 -18z"/>
<path d="M3700 3956 c0 -2 8 -10 18 -17 15 -13 16 -12 3 4 -13 16 -21 21 -21
13z"/>
<path d="M3853 3645 c0 -8 4 -12 9 -9 5 3 6 10 3 15 -9 13 -12 11 -12 -6z"/>
<path d="M216 3343 c-6 -14 -5 -15 5 -6 7 7 10 15 7 18 -3 3 -9 -2 -12 -12z"/>
<path d="M210 3209 c0 -5 5 -7 10 -4 6 3 10 8 10 11 0 2 -4 4 -10 4 -5 0 -10
-5 -10 -11z"/>
<path d="M3866 3108 c3 -5 10 -6 15 -3 13 9 11 12 -6 12 -8 0 -12 -4 -9 -9z"/>
<path d="M3866 3068 c3 -4 9 -8 15 -8 5 0 9 4 9 8 0 5 -7 9 -15 9 -8 0 -12 -4
-9 -9z"/>
<path d="M3870 3031 c0 -6 4 -13 10 -16 6 -3 7 1 4 9 -7 18 -14 21 -14 7z"/>
<path d="M216 2972 c-3 -5 1 -9 9 -9 8 0 12 4 9 9 -3 4 -7 8 -9 8 -2 0 -6 -4
-9 -8z"/>
<path d="M216 2848 c3 -5 10 -6 15 -3 13 9 11 12 -6 12 -8 0 -12 -4 -9 -9z"/>
<path d="M3867 2789 c7 -7 15 -10 18 -7 3 3 -2 9 -12 12 -14 6 -15 5 -6 -5z"/>
<path d="M216 2688 c3 -5 10 -6 15 -3 13 9 11 12 -6 12 -8 0 -12 -4 -9 -9z"/>
<path d="M3866 2588 c3 -4 9 -8 15 -8 5 0 9 4 9 8 0 5 -7 9 -15 9 -8 0 -12 -4
-9 -9z"/>
<path d="M3870 2551 c0 -6 4 -13 10 -16 6 -3 7 1 4 9 -7 18 -14 21 -14 7z"/>
<path d="M216 2383 c-6 -14 -5 -15 5 -6 7 7 10 15 7 18 -3 3 -9 -2 -12 -12z"/>
<path d="M3866 2388 c3 -5 10 -6 15 -3 13 9 11 12 -6 12 -8 0 -12 -4 -9 -9z"/>
<path d="M3867 2309 c7 -7 15 -10 18 -7 3 3 -2 9 -12 12 -14 6 -15 5 -6 -5z"/>
<path d="M210 2249 c0 -5 5 -7 10 -4 6 3 10 8 10 11 0 2 -4 4 -10 4 -5 0 -10
-5 -10 -11z"/>
<path d="M3864 2112 c4 -3 14 -7 22 -8 9 -1 13 0 10 4 -4 3 -14 7 -22 8 -9 1
-13 0 -10 -4z"/>
<path d="M3870 2071 c0 -6 4 -13 10 -16 6 -3 7 1 4 9 -7 18 -14 21 -14 7z"/>
<path d="M216 2012 c-3 -5 1 -9 9 -9 8 0 12 4 9 9 -3 4 -7 8 -9 8 -2 0 -6 -4
-9 -8z"/>
<path d="M3866 1972 c-3 -5 1 -9 9 -9 8 0 12 4 9 9 -3 4 -7 8 -9 8 -2 0 -6 -4
-9 -8z"/>
<path d="M3876 1903 c-6 -14 -5 -15 5 -6 7 7 10 15 7 18 -3 3 -9 -2 -12 -12z"/>
<path d="M216 1888 c3 -5 10 -6 15 -3 13 9 11 12 -6 12 -8 0 -12 -4 -9 -9z"/>
<path d="M3866 1812 c-3 -5 1 -9 9 -9 8 0 12 4 9 9 -3 4 -7 8 -9 8 -2 0 -6 -4
-9 -8z"/>
<path d="M216 1728 c3 -5 10 -6 15 -3 13 9 11 12 -6 12 -8 0 -12 -4 -9 -9z"/>
<path d="M3866 1732 c-3 -5 1 -9 9 -9 8 0 12 4 9 9 -3 4 -7 8 -9 8 -2 0 -6 -4
-9 -8z"/>
<path d="M3866 1652 c-3 -5 1 -9 9 -9 8 0 12 4 9 9 -3 4 -7 8 -9 8 -2 0 -6 -4
-9 -8z"/>
<path d="M3876 1583 c-6 -14 -5 -15 5 -6 7 7 10 15 7 18 -3 3 -9 -2 -12 -12z"/>
<path d="M3866 1492 c-3 -5 1 -9 9 -9 8 0 12 4 9 9 -3 4 -7 8 -9 8 -2 0 -6 -4
-9 -8z"/>
<path d="M215 1410 c3 -5 8 -10 11 -10 2 0 4 5 4 10 0 6 -5 10 -11 10 -5 0 -7
-4 -4 -10z"/>
<path d="M3866 1412 c-3 -5 1 -9 9 -9 8 0 12 4 9 9 -3 4 -7 8 -9 8 -2 0 -6 -4
-9 -8z"/>
<path d="M3866 1332 c-3 -5 1 -9 9 -9 8 0 12 4 9 9 -3 4 -7 8 -9 8 -2 0 -6 -4
-9 -8z"/>
<path d="M210 1289 c0 -5 5 -7 10 -4 6 3 10 8 10 11 0 2 -4 4 -10 4 -5 0 -10
-5 -10 -11z"/>
<path d="M3876 1265 c-9 -26 -7 -32 5 -12 6 10 9 21 6 23 -2 3 -7 -2 -11 -11z"/>
<path d="M3876 1103 c-6 -14 -5 -15 5 -6 7 7 10 15 7 18 -3 3 -9 -2 -12 -12z"/>
<path d="M3856 972 c-3 -5 1 -9 9 -9 8 0 12 4 9 9 -3 4 -7 8 -9 8 -2 0 -6 -4
-9 -8z"/>
<path d="M586 548 c3 -5 10 -6 15 -3 13 9 11 12 -6 12 -8 0 -12 -4 -9 -9z"/>
<path d="M933 495 c0 -8 4 -12 9 -9 5 3 6 10 3 15 -9 13 -12 11 -12 -6z"/>
<path d="M1615 501 c-3 -5 -2 -12 3 -15 5 -3 9 1 9 9 0 17 -3 19 -12 6z"/>
<path d="M2095 501 c-3 -5 -2 -12 3 -15 5 -3 9 1 9 9 0 17 -3 19 -12 6z"/>
<path d="M2895 501 c-3 -5 -2 -12 3 -15 5 -3 9 1 9 9 0 17 -3 19 -12 6z"/>
<path d="M1690 496 c0 -2 7 -7 16 -10 8 -3 12 -2 9 4 -6 10 -25 14 -25 6z"/>
<path d="M1810 490 c0 -5 5 -10 11 -10 5 0 7 5 4 10 -3 6 -8 10 -11 10 -2 0
-4 -4 -4 -10z"/>
<path d="M2055 490 c-3 -5 -1 -10 4 -10 6 0 11 5 11 10 0 6 -2 10 -4 10 -3 0
-8 -4 -11 -10z"/>
<path d="M2970 496 c0 -2 7 -7 16 -10 8 -3 12 -2 9 4 -6 10 -25 14 -25 6z"/>
<path d="M3093 479 c-2 -23 3 -25 10 -4 4 8 3 16 -1 19 -4 3 -9 -4 -9 -15z"/>
<path d="M3214 492 c4 -3 14 -7 22 -8 9 -1 13 0 10 4 -4 3 -14 7 -22 8 -9 1
-13 0 -10 -4z"/>
<path d="M3293 485 c0 -8 4 -12 9 -9 5 3 6 10 3 15 -9 13 -12 11 -12 -6z"/>
<path d="M1747 469 c7 -7 15 -10 18 -7 3 3 -2 9 -12 12 -14 6 -15 5 -6 -5z"/>
<path d="M2199 463 c-13 -16 -12 -17 4 -4 16 13 21 21 13 21 -2 0 -10 -8 -17
-17z"/>
<path d="M3027 469 c7 -7 15 -10 18 -7 3 3 -2 9 -12 12 -14 6 -15 5 -6 -5z"/>
</g>
</svg>
